<?xml version="1.0" encoding="UTF-8" standalone="no"?>
<svg
   width="56.998314"
   height="99.129997"
   version="1.1"
   id="svg4"
   sodipodi:docname="aljazeera.svg"
   inkscape:version="1.1.2 (0a00cf5339, 2022-02-04)"
   inkscape:export-filename="/mnt/main_storage/Git/SimplyNews/SimplyNews-Web/static/aljazeera.webp"
   inkscape:export-xdpi="213.05357"
   inkscape:export-ydpi="213.05357"
   xmlns:inkscape="http://www.inkscape.org/namespaces/inkscape"
   xmlns:sodipodi="http://sodipodi.sourceforge.net/DTD/sodipodi-0.dtd"
   xmlns="http://www.w3.org/2000/svg"
   xmlns:svg="http://www.w3.org/2000/svg">
  <defs
     id="defs8" />
  <sodipodi:namedview
     id="namedview6"
     pagecolor="#ffffff"
     bordercolor="#666666"
     borderopacity="1.0"
     inkscape:pageshadow="2"
     inkscape:pageopacity="0.0"
     inkscape:pagecheckerboard="0"
     showgrid="false"
     inkscape:zoom="2.623913"
     inkscape:cx="-23.628832"
     inkscape:cy="51.259321"
     inkscape:window-width="1888"
     inkscape:window-height="1060"
     inkscape:window-x="32"
     inkscape:window-y="0"
     inkscape:window-maximized="1"
     inkscape:current-layer="svg4" />
  <path
     fill="#dba200"
     d="m 35.877545,83.812409 c -0.128767,0.06438 -0.183952,0.294324 -0.09198,0.616242 0.09198,0.312719 0.597846,1.655575 0.597846,1.655575 0.349511,1.01174 0.956555,2.189038 1.75675,2.786884 0.864578,0.643835 1.315262,0.413894 1.490017,0.340313 0.119569,-0.07358 0.680625,-0.423091 0.478277,-1.342855 a 5.8496984,5.8496984 0 0 0 -0.496672,-1.60039 c -0.165558,-0.34951 -0.395499,-0.579451 -0.533463,-0.515067 -0.08278,0.01839 -0.0184,0.340312 -0.0184,0.533463 0,0.358708 -0.119569,0.625439 -0.404696,0.754206 -0.257534,0.119569 -0.873775,0.34951 -1.352053,-0.533463 -0.3863,-0.717416 -0.735811,-1.655575 -0.882973,-2.041876 -0.119569,-0.294324 -0.294324,-0.66223 -0.478277,-0.66223 z m -13.575715,2.621327 2.888059,2.501758 2.80528,-3.550289 -2.888059,-2.501758 z m 0.643835,-6.199209 2.878861,2.49256 2.814477,-3.531893 -2.888058,-2.510955 -2.796082,3.550288 z m 18.422871,-8.737757 3.384731,1.683168 1.867121,-4.175728 -3.375534,-1.67397 -1.876318,4.157333 z M 23.828638,68.562723 a 24.208186,24.208186 0 0 0 6.098035,8.792943 c 0.266731,-1.839528 0.551858,-3.127197 0.809392,-4.046961 a 20.078446,20.078446 0 0 1 -5.536979,-6.033651 z m 6.438348,-4.470052 3.384731,1.67397 1.86712,-4.16653 -3.384731,-1.673971 -1.876318,4.166531 z m -16.3626,-16.610936 c 0,0 -2.115457,1.563598 -2.970837,3.651462 a 4.764377,4.764377 0 0 0 -0.183953,3.31115 c 0.294324,0.662231 1.002542,1.296868 1.913108,0.533464 0.643835,-0.533464 0.919764,-1.28767 1.066927,-1.931505 0.09198,-0.367905 0.110371,-0.616241 0.110371,-0.800194 0,-0.229941 -0.07358,-0.432289 -0.275929,-0.377103 -0.616242,0.211545 -0.257534,1.076123 -0.689823,1.490017 -0.331115,0.211546 -1.195693,0.09198 -1.36125,-0.790997 -0.174755,-0.892171 0.478277,-2.032678 1.076123,-2.796082 0.588649,-0.754207 1.63718,-1.747552 1.63718,-1.747552 0,0 0.735811,-0.643834 0.487475,-0.965752 0,-0.01839 -0.03679,-0.02759 -0.06438,-0.02759 -0.220743,0 -0.745008,0.450685 -0.745008,0.450685 z m 20.805059,-2.308608 -2.612129,2.989233 -2.235027,2.566141 c -0.496672,0.579452 -0.754206,1.140508 -0.689823,1.44403 l 0.294325,1.545203 c 0.08278,-0.285127 0.395498,-0.809392 0.745009,-1.214088 l 2.612129,-2.989233 c 1.030136,-1.195693 2.023481,-2.308607 2.235026,-2.575339 0.505871,-0.551858 0.763405,-1.13131 0.689823,-1.425634 l -0.303522,-1.563599 c -0.07358,0.294325 -0.386301,0.81859 -0.735811,1.223286 z M 6.5186818,67.661355 A 5.6381527,5.6381527 0 0 1 8.983649,64.285821 c 2.133852,-1.039333 2.970837,1.63718 2.970837,1.63718 a 2.8512681,2.8512681 0 0 1 -2.9248488,2.759292 c -0.8553804,0 -1.7659467,-0.340313 -2.5109554,-1.011741 z M 22.421399,24.211708 a 2.7041059,2.7041059 0 0 0 -2.556943,2.832873 2.6949082,2.6949082 0 0 0 2.704106,2.68571 c 0.800194,-0.02759 1.48082,-0.423091 1.959097,-1.01174 l 0.05519,-0.06438 c 0.303522,2.207433 -0.699021,3.954984 -3.035221,5.987663 -2.391386,2.115457 -7.983551,4.865551 -11.9569308,8.158306 -5.6013621,4.63561 -6.9258222,9.685113 -7.2661348,13.768865 -0.1379646,1.83033 0.1103717,4.230914 0.5886489,6.208406 a 27.261802,27.261802 0 0 0 1.5635986,4.617215 c -0.1379646,2.704106 0.1195693,7.431693 1.5819939,11.000376 1.9498995,4.59882 5.4633972,8.369852 10.5129012,7.256938 5.086294,-1.250879 5.656548,-9.915055 6.235999,-16.243031 0.147163,-1.039333 0.303522,-1.223286 0.607044,-1.490017 0.81859,-0.726614 2.80528,-2.676513 3.74344,-3.541091 a 5.9232795,5.9232795 0 0 0 1.425634,-1.775145 c 0.423091,-0.827787 0.202348,-1.949899 0.202348,-1.949899 l -0.570254,-4.166531 c -0.147162,0.588649 -0.836985,1.416437 -1.811935,2.446572 -1.01174,1.066926 -3.715846,3.495103 -3.954985,3.771032 -0.248336,0.248337 -1.131309,0.919764 -1.508412,4.102147 -0.97495,8.654979 -2.602932,12.73873 -5.518584,14.118376 -0.772602,0.386301 -1.63718,0.551859 -2.602932,0.588649 C 7.4660386,81.457813 6.0587998,74.61477 6.0771951,70.880528 l 0.018395,-0.653032 c 1.2508789,1.747551 3.0812091,3.495103 5.3530259,3.127197 3.614672,-0.570253 2.483363,-6.962612 1.968295,-8.443432 C 12.901843,63.421243 11.494604,58.978784 8.4685813,59.199527 6.3163337,59.346689 5.3229887,61.986411 4.8631068,64.221438 4.449213,62.455491 4.219272,60.386022 4.3572366,58.767238 4.679154,54.904229 5.9484282,50.075469 11.319849,45.32029 c 3.826218,-3.375534 8.158306,-5.794513 10.577285,-7.790401 a 10.117403,10.117403 0 0 0 3.016826,-4.01017 c -0.147163,1.287669 -0.459882,2.68571 -1.048531,4.32289 -2.225829,6.125628 -8.976896,16.252228 -9.068872,30.572952 a 57.025362,57.025362 0 0 0 1.066926,11.451061 c 0.367905,-0.257534 0.708218,-0.607044 1.030135,-1.011741 -0.459882,-2.327002 -0.735811,-4.902341 -0.735811,-7.652435 0,-14.283934 6.705079,-24.401337 8.894117,-30.517766 a 21.218953,21.218953 0 0 0 1.177298,-7.900772 c 0,-2.851268 -0.607044,-5.812908 -1.177298,-6.971811 -0.607044,-1.103716 -1.370448,-1.600389 -2.510955,-1.600389 z m 6.58551,-19.590971 c -1.352053,0.993345 -2.474165,3.2375689 -2.464967,6.659091 a 15.635986,15.635986 0 0 0 2.115457,7.450087 c -2.069469,2.970838 -2.45577,5.702536 -1.563599,8.323864 0.66223,1.995887 1.01174,2.510955 1.306065,3.69745 0.772601,3.035221 -0.08278,6.668289 -2.363793,12.269651 -1.839528,4.571226 -4.24931,9.353999 -4.24931,15.176104 0,1.32446 0.11957,2.630525 0.294325,3.899799 0.211546,-0.220743 0.671427,-0.671427 1.232483,-1.195693 -0.275929,-4.571227 1.462425,-9.151651 3.58708,-13.272193 3.108802,-6.015256 3.495102,-12.140884 2.888058,-15.488824 2.179841,2.437374 5.849699,6.070442 7.992749,9.813881 a 8.8849193,8.8849193 0 0 1 1.260076,3.651462 c 0.101174,2.952443 -0.781799,5.0679 -2.510955,7.146566 -1.471623,1.747551 -0.956555,3.292755 -0.892171,3.596277 0.110371,0.496672 0.708218,2.409781 1.122112,3.651462 1.627982,-3.320347 6.107232,-5.196666 8.13991,-7.955957 0.459882,3.403126 -1.98669,6.640695 -3.798625,8.811338 a 37.986249,37.986249 0 0 1 -1.444029,1.526808 c -3.439917,3.439917 -5.702536,5.80371 -6.898229,8.001946 -0.303522,0.487475 -0.800195,1.581994 -1.048531,2.418979 a 30.628138,30.628138 0 0 0 -1.1681,5.978465 c -0.285127,1.857923 -0.607044,4.074554 -0.717416,5.058702 -0.229941,2.244224 -0.873776,5.812908 -3.513498,6.824648 -0.147162,0.06438 -0.275929,0.09198 -0.432289,0.128767 v 0.0092 c -2.510956,0.579451 -5.086295,-1.627983 -6.962613,-5.582967 -0.377103,0.303522 -0.800195,0.579451 -1.260077,0.790997 2.538549,6.263592 6.346371,9.142453 9.694312,9.142453 2.529351,0 4.525238,-1.333658 5.169073,-5.224259 0.331115,-1.959097 0.561056,-4.138938 0.772602,-6.254395 0.101174,-1.01174 0.579451,-6.741869 1.471622,-8.829733 1.085321,-2.327003 3.46751,-4.580424 7.026996,-8.41584 2.198236,-2.372991 3.393929,-4.359681 4.019368,-5.950872 2.069469,-3.964183 -0.496672,-13.391763 -0.993345,-15.084128 -0.01839,-0.06438 -0.01839,-0.07358 -0.05519,-0.07358 -0.05519,0 -0.06438,0.0092 -0.101174,0.08278 0,0.0184 -0.0184,0.02759 -0.02759,0.03679 -0.919764,1.563599 -2.547746,2.980035 -4.065357,4.148135 0.855381,-2.45577 0.62544,-4.32289 0.275929,-5.886489 v -0.01839 l -0.05519,-0.275929 v 0.01839 C 39.243881,37.171181 33.127451,31.597412 30.36816,28.387436 26.78108,24.230103 28.004366,21.55359 29.319629,19.852027 c 0.248336,0.377103 0.50587,0.790997 0.800194,1.195693 4.874749,6.907427 14.06319,17.88021 18.873556,28.328728 a 36.07314,36.07314 0 0 1 2.667315,7.707622 C 53.564605,67.900493 46.335261,78.910067 35.50964,75.810463 a 2.1430499,2.1430499 0 0 1 -0.211546,-0.06438 31.336356,31.336356 0 0 0 -0.846183,4.59882 c 1.63718,0.726613 3.421522,1.1681 5.150678,1.241681 l 0.367906,0.0184 c 8.903314,0.09198 15.875125,-6.870637 14.587455,-21.485685 0,0 -0.533463,-6.07964 -3.541091,-12.490394 C 46.206494,36.380184 37.293982,25.241844 31.830584,18.04929 30.09223,15.768275 29.071292,13.790783 28.565422,12.080022 27.535287,8.7596745 28.197517,6.1843356 29.503581,5.053026 c 0.27593,-0.2483363 0.634638,-0.5242654 0.956555,-0.6898229 0.19315,-0.1103717 0.119569,-0.3495103 -0.01839,-0.3771032 l -0.11957,-0.0092 c -0.183952,0 -0.561056,0.091976 -1.315262,0.6438348 z M 18.999878,28.948492 a 2.7041059,2.7041059 0 0 0 -2.547746,2.851268 2.6857106,2.6857106 0 0 0 2.704106,2.667316 2.7041059,2.7041059 0 0 0 2.556943,-2.832873 2.6949082,2.6949082 0 0 0 -2.621327,-2.685711 z"
     fill-rule="evenodd"
     id="path2"
     style="stroke-width:0.919764" />
</svg>
