<?xml version="1.0" encoding="UTF-8" standalone="no"?>
<svg
   viewBox="0 0 34.249397 36"
   role="img"
   preserveAspectRatio="xMinYMin"
   class="heise-online-logo topnavigation__heiseonline-logo"
   version="1.1"
   id="svg8"
   sodipodi:docname="heise.svg"
   width="34.249397"
   height="36"
   inkscape:version="1.1.2 (0a00cf5339, 2022-02-04)"
   inkscape:export-filename="/mnt/main_storage/Git/SimplyNews/SimplyNews-Web/static/heise.webp"
   inkscape:export-xdpi="586.66669"
   inkscape:export-ydpi="586.66669"
   xmlns:inkscape="http://www.inkscape.org/namespaces/inkscape"
   xmlns:sodipodi="http://sodipodi.sourceforge.net/DTD/sodipodi-0.dtd"
   xmlns="http://www.w3.org/2000/svg"
   xmlns:svg="http://www.w3.org/2000/svg"
   xmlns:rdf="http://www.w3.org/1999/02/22-rdf-syntax-ns#"
   xmlns:cc="http://creativecommons.org/ns#"
   xmlns:dc="http://purl.org/dc/elements/1.1/">
  <defs
     id="defs12" />
  <sodipodi:namedview
     id="namedview10"
     pagecolor="#9f9f9f"
     bordercolor="#666666"
     borderopacity="1.0"
     inkscape:pageshadow="2"
     inkscape:pageopacity="0"
     inkscape:pagecheckerboard="0"
     showgrid="false"
     inkscape:zoom="12.507772"
     inkscape:cx="12.951947"
     inkscape:cy="19.148094"
     inkscape:window-width="1888"
     inkscape:window-height="1060"
     inkscape:window-x="32"
     inkscape:window-y="0"
     inkscape:window-maximized="1"
     inkscape:current-layer="heise_online_svg__heise_online" />
  <title
     id="title2">heise online Logo</title>
  <g
     id="heise_online_svg__heise_online"
     fill="#323232"
     transform="translate(0.00939915)">
    <path
       id="heise_online_svg__logo"
       d="m 29.451319,27.330556 0.662055,0.979841 A 15.995239,15.995239 0 0 1 18.275838,33.88931 c -8.9068416,0 -16.2688887,-6.452825 -16.2688887,-15.571524 A 15.703935,15.703935 0 0 1 17.225378,2.1106896 h 0.882739 c 7.732798,0 14.123832,4.8462397 14.123832,12.9409604 a 12.146495,12.146495 0 0 1 -3.742816,8.324233 l -1.165216,-0.962186 a 10.645838,10.645838 0 0 0 2.295123,-6.364551 c 0,-6.6470284 -5.21699,-10.9724518 -11.669816,-10.9724518 -8.633192,0 -11.6698157,6.8059218 -11.6698157,14.3974808 A 11.916983,11.916983 0 0 0 17.816813,31.735426 h 0.300132 a 16.913288,16.913288 0 0 0 9.754271,-3.071933 12.022912,12.022912 0 0 0 1.580103,-1.332937 z M 19.255678,26.668502 a 1.7654789,1.7654789 0 0 0 2.33926,-0.88274 l 3.530958,-7.944655 a 1.7654789,1.7654789 0 0 0 -0.88274,-2.33926 1.7654789,1.7654789 0 0 0 -2.339259,0.88274 l -3.530958,7.944655 a 1.7654789,1.7654789 0 0 0 0.882739,2.33926 z M 19.944215,8.448759 A 1.7654789,1.7654789 0 0 0 17.631438,9.3314984 L 10.993237,24.338069 a 1.7654789,1.7654789 0 0 0 0.882739,2.330433 1.7654789,1.7654789 0 0 0 2.312778,-0.88274 l 6.638201,-15.006571 a 1.7654789,1.7654789 0 0 0 -0.88274,-2.330432 z"
       style="stroke-width:0.882739;fill:#ffffff;fill-opacity:1" />
  </g>
  <metadata
     id="metadata829">
    <rdf:RDF>
      <cc:Work
         rdf:about="">
        <dc:title>heise online Logo</dc:title>
      </cc:Work>
    </rdf:RDF>
  </metadata>
</svg>
