<?xml version="1.0" encoding="UTF-8" standalone="no"?>
<!-- Generator: Adobe Illustrator 24.2.2, SVG Export Plug-In . SVG Version: 6.00 Build 0)  -->

<svg
   version="1.1"
   id="Layer_1"
   x="0px"
   y="0px"
   viewBox="0 0 509.1 254.3"
   style="enable-background:new 0 0 509.1 254.3;"
   xml:space="preserve"
   sodipodi:docname="makeuseof.svg"
   inkscape:export-filename="/mnt/main_storage/Git/SimplyNews/SimplyNews-Web/static/makeuseof.webp"
   inkscape:export-xdpi="83.051514"
   inkscape:export-ydpi="83.051514"
   inkscape:version="1.1.2 (0a00cf5339, 2022-02-04)"
   xmlns:inkscape="http://www.inkscape.org/namespaces/inkscape"
   xmlns:sodipodi="http://sodipodi.sourceforge.net/DTD/sodipodi-0.dtd"
   xmlns="http://www.w3.org/2000/svg"
   xmlns:svg="http://www.w3.org/2000/svg"><defs
   id="defs19" /><sodipodi:namedview
   id="namedview17"
   pagecolor="#ffffff"
   bordercolor="#666666"
   borderopacity="1.0"
   inkscape:pageshadow="2"
   inkscape:pageopacity="0.0"
   inkscape:pagecheckerboard="0"
   showgrid="false"
   inkscape:zoom="1.6764445"
   inkscape:cx="221.8982"
   inkscape:cy="157.17789"
   inkscape:window-width="1888"
   inkscape:window-height="1060"
   inkscape:window-x="32"
   inkscape:window-y="0"
   inkscape:window-maximized="1"
   inkscape:current-layer="Layer_1" />
<style
   type="text/css"
   id="style2">
	.st0{fill:#C60D0D;}
	.st1{fill:#FFFFFF;}
</style>
<g
   id="Layer_2_1_">
	<g
   id="Layer_1-2">
		<polygon
   class="st0"
   points="103.7,0.4 0,104.1 0,253.6 405.3,253.6 508.7,150.2 508.7,0.4   "
   id="polygon4" />
		<polygon
   class="st0"
   points="435.2,254.3 509.1,254.3 509.1,180.4   "
   id="polygon6" />
		<path
   class="st1"
   d="M198.4,174.3c-3.4,0.2-6.4-2.4-6.7-5.8c0-0.3,0-0.6,0-0.9v-51.1c0-2.9,1-5.7,2.8-8l2.8-3.5l0.2-0.3    c1.2-1.2,2.2-2.2,3.8-2.2c0.7,0,4.1,0.2,4.1,5.3v59.8C205.4,171.7,202.7,174.3,198.4,174.3z M111,174.3c-3.4,0.2-6.4-2.4-6.7-5.8    c0-0.3,0-0.6,0-0.9V83.7c-0.3-3.4,2.3-6.4,5.8-6.7c0.3,0,0.6,0,0.9,0c3.8,0,7.4,1.7,9.9,4.7l34.8,42.2l34.4-43    c1.9-2.5,4.9-3.9,8-3.9h3.5c2.1-0.1,3.8,1.6,3.9,3.7c0,0.1,0,0.1,0,0.2c0,1-0.4,2-1,2.7l-41.8,52.2c-2.2,2.7-4.5,4-7,4    s-4.6-1.3-6.9-3.9L118,98.8v68.9C118,171.7,115.3,174.3,111,174.3L111,174.3z"
   id="path8" />
		<path
   class="st1"
   d="M224.2,173.4c-7.4,0-11.7-4.3-11.7-11.7V82.8c0-4,2.8-6.7,7-6.7c3.4-0.2,6.4,2.4,6.7,5.8c0,0.3,0,0.6,0,0.9    v77.4h63.7V82.8c0-4,2.8-6.7,7-6.7c3.4-0.2,6.4,2.4,6.7,5.8c0,0.3,0,0.6,0,0.9v78.9c0,7.4-4.3,11.7-11.9,11.7L224.2,173.4z"
   id="path10" />
		<path
   class="st1"
   d="M321.9,173.4c-7.4,0-11.7-4.3-11.7-11.7v-73c0-7.4,4.3-11.7,11.7-11.7h70.7c7.4,0,11.7,4.3,11.7,11.7v73    c0,7.4-4.3,11.7-11.7,11.7H321.9z M390.7,160.3V90.2h-66.8v70.1H390.7z"
   id="path12" />
	</g>
</g>
</svg>
