<?xml version="1.0" encoding="UTF-8" standalone="no"?>
<!-- Created with Inkscape (http://www.inkscape.org/) -->

<svg
   width="28.22422mm"
   height="27.878338mm"
   viewBox="0 0 28.22422 27.878337"
   version="1.1"
   id="svg5"
   inkscape:version="1.1.2 (0a00cf5339, 2022-02-04)"
   sodipodi:docname="decentralizetoday.svg"
   xmlns:inkscape="http://www.inkscape.org/namespaces/inkscape"
   xmlns:sodipodi="http://sodipodi.sourceforge.net/DTD/sodipodi-0.dtd"
   xmlns="http://www.w3.org/2000/svg"
   xmlns:svg="http://www.w3.org/2000/svg">
  <sodipodi:namedview
     id="namedview7"
     pagecolor="#b3b3b3"
     bordercolor="#666666"
     borderopacity="1.0"
     inkscape:pageshadow="2"
     inkscape:pageopacity="0"
     inkscape:pagecheckerboard="true"
     inkscape:document-units="mm"
     showgrid="false"
     inkscape:zoom="4.5896745"
     inkscape:cx="7.4079327"
     inkscape:cy="66.780335"
     inkscape:window-width="1888"
     inkscape:window-height="1060"
     inkscape:window-x="32"
     inkscape:window-y="0"
     inkscape:window-maximized="1"
     inkscape:current-layer="layer1" />
  <defs
     id="defs2" />
  <g
     inkscape:label="Layer 1"
     inkscape:groupmode="layer"
     id="layer1"
     transform="translate(-61.333485,-161.18521)">
    <path
       style="fill:#ffffff;stroke-width:0.0831357"
       d="m 74.36759,186.85494 c -2.733356,-0.40097 -5.105747,-2.23246 -6.139732,-4.7399 -0.465287,-1.12834 -0.624556,-3.06659 -0.375097,-4.56482 0.255961,-1.53728 0.985509,-2.86378 2.217783,-4.03245 1.340516,-1.27133 2.733649,-1.91344 4.607573,-2.12372 0.765045,-0.0858 1.914271,-0.009 2.531007,0.16952 0.159734,0.0462 0.321178,0.084 0.358765,0.084 0.03759,0 0.05654,-0.88852 0.04211,-1.97448 -0.02458,-1.85103 -0.03771,-1.99596 -0.210067,-2.3182 -0.421566,-0.78817 -1.126118,-1.22239 -1.986548,-1.22432 -0.933022,-0.002 -1.76445,0.57865 -2.070569,1.44629 -0.08939,0.25337 -0.123665,0.7134 -0.123665,1.66004 0,0.94622 -0.02883,1.33346 -0.103919,1.39576 -0.05715,0.0474 -0.365797,0.18412 -0.68587,0.30376 -0.320073,0.11965 -0.875517,0.38732 -1.234321,0.59485 -0.358804,0.20751 -0.708023,0.35594 -0.776043,0.32984 -0.106369,-0.0408 -0.119033,-0.3586 -0.09052,-2.27125 0.03727,-2.49948 0.09135,-2.79342 0.706154,-3.83797 1.119856,-1.90263 3.233162,-2.76745 5.634648,-2.30585 1.595036,0.3066 3.067565,1.69643 3.624783,3.42122 0.177268,0.54871 0.189949,0.74801 0.22202,3.48954 l 0.03401,2.90759 0.512095,0.54338 c 0.903558,0.95875 1.552277,2.11635 1.901661,3.39339 0.257178,0.94002 0.255534,2.93992 -0.0032,3.88231 -0.226518,0.82507 -0.73604,1.90319 -1.219927,2.5813 -0.537204,0.75282 -1.666839,1.77148 -2.468515,2.22601 -1.476584,0.83716 -3.311424,1.19786 -4.904641,0.96414 z m 2.899852,-0.90136 c 2.526338,-0.72209 4.412417,-2.67181 5.014664,-5.18386 0.199279,-0.8312 0.218233,-2.24852 0.04124,-3.0839 -0.456964,-2.15686 -1.838803,-3.91796 -3.825073,-4.87491 -0.995664,-0.4797 -1.646421,-0.65264 -2.701911,-0.71805 -2.833132,-0.17557 -5.535149,1.44095 -6.771973,4.05143 -0.476634,1.006 -0.645228,1.7861 -0.645228,2.98551 0,1.19356 0.168603,1.9795 0.636537,2.96721 0.413726,0.87328 0.85907,1.48745 1.564006,2.15691 0.974621,0.92556 2.153052,1.54475 3.470808,1.82368 0.769146,0.1628 2.438627,0.0985 3.216927,-0.12402 z m -2.260866,-5.79837 0.02218,-2.18493 0.02218,-2.18494 -0.313158,0.0568 c -0.897585,0.16278 -1.917612,0.9436 -2.328044,1.78212 -0.125547,0.25649 -0.267896,0.70952 -0.316331,1.00673 l -0.08806,0.54038 -0.308255,0.0258 c -0.395815,0.0332 -0.438438,-0.077 -0.30443,-0.78724 0.364669,-1.93268 2.069921,-3.34953 4.03529,-3.35283 1.697405,-0.003 3.298301,1.14126 3.846805,2.7492 0.189344,0.55506 0.276758,1.16623 0.187466,1.31071 -0.03963,0.0641 -0.180098,0.0972 -0.344727,0.0813 -0.272952,-0.0265 -0.279652,-0.0368 -0.380738,-0.58706 -0.253687,-1.38091 -1.352049,-2.53736 -2.63003,-2.76913 l -0.313158,-0.0568 0.02218,2.18351 0.02218,2.1835 m 3.948961,-9.86512 c 0,-1.29691 -0.03798,-2.55953 -0.0844,-2.80583 -0.123307,-0.65426 -0.595996,-1.58744 -1.05383,-2.08048 -2.260093,-2.43387 -6.197286,-1.64774 -7.360522,1.46965 -0.164108,0.4398 -0.188181,0.68602 -0.21394,2.18807 -0.0165,0.96227 0.0028,1.67964 0.04459,1.66271 0.04049,-0.0163 0.357405,-0.15643 0.704261,-0.31121 l 0.630646,-0.28143 0.03151,-1.25659 c 0.02869,-1.14437 0.05081,-1.29742 0.247672,-1.71383 0.305264,-0.6457 0.723162,-1.08973 1.330008,-1.41318 1.252134,-0.66738 2.850943,-0.30796 3.685144,0.82846 0.533206,0.72637 0.566533,0.9005 0.619369,3.23625 l 0.04776,2.11115 0.540383,0.28507 c 0.29721,0.1568 0.575923,0.31976 0.619361,0.36214 0.04344,0.0424 0.108908,0.0771 0.145488,0.0771 0.03658,0 0.0665,-1.06111 0.0665,-2.35802 z"
       id="path1152"
       sodipodi:nodetypes="ssssscssscssssssssssscsssssssssssssssssscccsssccscssssscccssssscscssssscsssss" />
    <circle
       style="fill:#f7931a;fill-opacity:1;stroke:none;stroke-width:7.9172"
       id="path1530"
       cx="75.445602"
       cy="182.15596"
       r="2.1736374" />
  </g>
</svg>
